<svg width="720px" height="400px" viewBox="0 0 720 400" version="1.1" xmlns="http://www.w3.org/2000/svg" xmlns:xlink="http://www.w3.org/1999/xlink">
    <g stroke="none" stroke-width="1" fill="none" fill-rule="evenodd">
        <rect fill="#FFFFFF" x="0" y="0" width="720" height="400"></rect>
        <g transform="translate(85.500000, 104.000000)">
            <g transform="translate(0.253964, 0.000000)">
                <ellipse fill="#1597FF" fill-rule="nonzero" cx="94.9151293" cy="98.0101879" rx="18.5703514" ry="18.226456"></ellipse>
                <ellipse stroke="#1D1D1D" transform="translate(94.417107, 95.897053) rotate(34.000000) translate(-94.417107, -95.897053) " cx="94.4171069" cy="95.8970531" rx="31.6383764" ry="94.2273385"></ellipse>
                <ellipse stroke="#1D1D1D" transform="translate(94.637763, 98.061035) rotate(-41.000000) translate(-94.637763, -98.061035) " cx="94.6377625" cy="98.0610349" rx="31.6383764" ry="94.2273385"></ellipse>
                <ellipse stroke="#1D1D1D" transform="translate(94.227339, 95.602920) rotate(90.000000) translate(-94.227339, -95.602920) " cx="94.2273385" cy="95.6029201" rx="31.6383764" ry="94.2273385"></ellipse>
                <circle fill="#00DF3F" cx="33.3578534" cy="26.4799455" r="9.28517569"></circle>
                <circle fill="#FBE330" cx="150.387536" cy="50.0083567" r="9.28517569"></circle>
                <circle fill="#EB2222" cx="29.7006345" cy="119.365192" r="9.28517569"></circle>
            </g>
            <path d="M232.599852,99.546875 L227.849852,96.671875 C224.870671,94.8593659 222.7509,93.0729255 221.490477,91.3125 C220.230054,89.5520745 219.599852,87.5260531 219.599852,85.234375 C219.599852,81.7968578 220.792549,79.0052191 223.177977,76.859375 C225.563406,74.7135309 228.662333,73.640625 232.474852,73.640625 C236.120704,73.640625 239.46442,74.6614481 242.506102,76.703125 L242.506102,83.796875 C239.360253,80.7760266 235.97487,79.265625 232.349852,79.265625 C230.308175,79.265625 228.631109,79.7395786 227.318602,80.6875 C226.006096,81.6354214 225.349852,82.8489509 225.349852,84.328125 C225.349852,85.6406316 225.829014,86.8697859 226.787352,88.015625 C227.74569,89.1614641 229.297758,90.3593688 231.443602,91.609375 L236.224852,94.421875 C241.558212,97.5885575 244.224852,101.630184 244.224852,106.546875 C244.224852,110.046893 243.052989,112.890614 240.709227,115.078125 C238.365465,117.265636 235.318621,118.359375 231.568602,118.359375 C227.256081,118.359375 223.329036,117.036472 219.787352,114.390625 L219.787352,106.453125 C223.162369,110.72398 227.06858,112.859375 231.506102,112.859375 C233.464445,112.859375 235.094637,112.312505 236.396727,111.21875 C237.698817,110.124995 238.349852,108.755217 238.349852,107.109375 C238.349852,104.442695 236.433205,101.921887 232.599852,99.546875 Z M288.724852,107.734375 L288.724852,114.609375 C284.141496,117.109388 278.849882,118.359375 272.849852,118.359375 C267.974828,118.359375 263.839452,117.380218 260.443602,115.421875 C257.047752,113.463532 254.360279,110.765642 252.381102,107.328125 C250.401926,103.890608 249.412352,100.171895 249.412352,96.171875 C249.412352,89.8176766 251.677954,84.47398 256.209227,80.140625 C260.7405,75.80727 266.328986,73.640625 272.974852,73.640625 C277.558208,73.640625 282.651907,74.8385297 288.256102,77.234375 L288.256102,83.953125 C283.15191,81.0364438 278.162376,79.578125 273.287352,79.578125 C268.287327,79.578125 264.136327,81.1562342 260.834227,84.3125 C257.532127,87.4687658 255.881102,91.4218513 255.881102,96.171875 C255.881102,100.963566 257.506086,104.901026 260.756102,107.984375 C264.006118,111.067724 268.162327,112.609375 273.224852,112.609375 C278.516545,112.609375 283.68316,110.984391 288.724852,107.734375 Z M296.474852,74.203125 L302.724852,74.203125 L302.724852,117.859375 L296.474852,117.859375 L296.474852,74.203125 Z M312.412352,74.203125 L337.162352,74.203125 L337.162352,79.765625 L318.662352,79.765625 L318.662352,93.078125 L336.537352,93.078125 L336.537352,98.671875 L318.662352,98.671875 L318.662352,112.234375 L337.756102,112.234375 L337.756102,117.796875 L312.412352,117.796875 L312.412352,74.203125 Z M379.099852,74.203125 L385.037352,74.203125 L385.037352,117.859375 L379.662352,117.859375 L350.474852,84.265625 L350.474852,117.859375 L344.599852,117.859375 L344.599852,74.203125 L349.662352,74.203125 L379.099852,108.078125 L379.099852,74.203125 Z M432.006102,107.734375 L432.006102,114.609375 C427.422746,117.109388 422.131132,118.359375 416.131102,118.359375 C411.256078,118.359375 407.120702,117.380218 403.724852,115.421875 C400.329002,113.463532 397.641529,110.765642 395.662352,107.328125 C393.683176,103.890608 392.693602,100.171895 392.693602,96.171875 C392.693602,89.8176766 394.959204,84.47398 399.490477,80.140625 C404.02175,75.80727 409.610236,73.640625 416.256102,73.640625 C420.839458,73.640625 425.933157,74.8385297 431.537352,77.234375 L431.537352,83.953125 C426.43316,81.0364438 421.443626,79.578125 416.568602,79.578125 C411.568577,79.578125 407.417577,81.1562342 404.115477,84.3125 C400.813377,87.4687658 399.162352,91.4218513 399.162352,96.171875 C399.162352,100.963566 400.787336,104.901026 404.037352,107.984375 C407.287368,111.067724 411.443577,112.609375 416.506102,112.609375 C421.797795,112.609375 426.96441,110.984391 432.006102,107.734375 Z M439.756102,74.203125 L446.006102,74.203125 L446.006102,117.859375 L439.756102,117.859375 L439.756102,74.203125 Z M490.381102,74.203125 L496.318602,74.203125 L496.318602,117.859375 L490.943602,117.859375 L461.756102,84.265625 L461.756102,117.859375 L455.881102,117.859375 L455.881102,74.203125 L460.943602,74.203125 L490.381102,108.078125 L490.381102,74.203125 Z M529.256102,96.359375 L543.912352,96.359375 L543.912352,114.859375 C538.537325,117.19272 533.204045,118.359375 527.912352,118.359375 C520.683149,118.359375 514.907165,116.250021 510.584227,112.03125 C506.261289,107.812479 504.099852,102.609406 504.099852,96.421875 C504.099852,89.9010091 506.339413,84.47398 510.818602,80.140625 C515.297791,75.80727 520.912318,73.640625 527.662352,73.640625 C530.120698,73.640625 532.454008,73.9062473 534.662352,74.4375 C536.870696,74.9687527 539.662335,75.9427013 543.037352,77.359375 L543.037352,83.734375 C537.828993,80.7135266 532.662378,79.203125 527.537352,79.203125 C522.766495,79.203125 518.745702,80.8281088 515.474852,84.078125 C512.204002,87.3281413 510.568602,91.3176847 510.568602,96.046875 C510.568602,101.005233 512.204002,105.057276 515.474852,108.203125 C518.745702,111.348974 522.953993,112.921875 528.099852,112.921875 C530.599865,112.921875 533.589418,112.348964 537.068602,111.203125 L537.662352,111.015625 L537.662352,101.921875 L529.256102,101.921875 L529.256102,96.359375 Z" fill="#000000"></path>
        </g>
    </g>
</svg>
